solid OpenSCAD_Model
  facet normal -1 0 0
    outer loop
      vertex -30 -1.875 -10.5
      vertex -30 1.875 -8.14729
      vertex -30 1.875 -10.5
    endloop
  endfacet
  facet normal -1 -0 0
    outer loop
      vertex -30 1.875 -8.14729
      vertex -30 -1.875 -10.5
      vertex -30 -1.875 -8.14729
    endloop
  endfacet
  facet normal -0 0 1
    outer loop
      vertex -9.375 0.625 10.5
      vertex 9.375 0 10.5
      vertex 9.375 0.625 10.5
    endloop
  endfacet
  facet normal 0 0 1
    outer loop
      vertex 9.375 0 10.5
      vertex -9.375 0.625 10.5
      vertex -9.375 0 10.5
    endloop
  endfacet
  facet normal 0 0 1
    outer loop
      vertex 9.375 0 10.5
      vertex 11.4077 1.875 10.5
      vertex 9.375 0.625 10.5
    endloop
  endfacet
  facet normal -0 0 1
    outer loop
      vertex -11.25 1.875 10.5
      vertex 9.375 0.625 10.5
      vertex 11.4077 1.875 10.5
    endloop
  endfacet
  facet normal 0 0 1
    outer loop
      vertex -11.25 1.875 10.5
      vertex -9.375 0 10.5
      vertex -9.375 0.625 10.5
    endloop
  endfacet
  facet normal 0 0 1
    outer loop
      vertex 9.375 0.625 10.5
      vertex -11.25 1.875 10.5
      vertex -9.375 0.625 10.5
    endloop
  endfacet
  facet normal 0 0 1
    outer loop
      vertex -9.375 0 10.5
      vertex -11.25 1.875 10.5
      vertex -11.25 -1.875 10.5
    endloop
  endfacet
  facet normal 0 0 1
    outer loop
      vertex -9.375 0 10.5
      vertex -11.25 -1.875 10.5
      vertex -9.375 -1.875 10.5
    endloop
  endfacet
  facet normal 0 0 1
    outer loop
      vertex 11.4077 1.875 10.5
      vertex 9.375 0 10.5
      vertex 11.4077 -1.875 10.5
    endloop
  endfacet
  facet normal 0 0 1
    outer loop
      vertex 11.4077 -1.875 10.5
      vertex 9.375 0 10.5
      vertex 9.375 -1.875 10.5
    endloop
  endfacet
  facet normal 1 -0 0
    outer loop
      vertex 30 -1.875 -6.64729
      vertex 30 1.875 -10.5
      vertex 30 1.875 -6.64729
    endloop
  endfacet
  facet normal 1 0 0
    outer loop
      vertex 30 1.875 -10.5
      vertex 30 -1.875 -6.64729
      vertex 30 -1.875 -10.5
    endloop
  endfacet
  facet normal 0 1 -0
    outer loop
      vertex 30 1.875 -10.5
      vertex 28.0401 1.875 -6.64729
      vertex 30 1.875 -6.64729
    endloop
  endfacet
  facet normal 0 1 0
    outer loop
      vertex 28.0401 1.875 -6.64729
      vertex 30 1.875 -10.5
      vertex -24.2059 1.875 -7.33231
    endloop
  endfacet
  facet normal 0 1 0
    outer loop
      vertex -30 1.875 -10.5
      vertex -24.2059 1.875 -7.33231
      vertex 30 1.875 -10.5
    endloop
  endfacet
  facet normal 0 1 0
    outer loop
      vertex -24.2059 1.875 -7.33231
      vertex -30 1.875 -10.5
      vertex -28.0401 1.875 -8.14729
    endloop
  endfacet
  facet normal 0 1 0
    outer loop
      vertex -28.0401 1.875 -8.14729
      vertex -30 1.875 -10.5
      vertex -30 1.875 -8.14729
    endloop
  endfacet
  facet normal 0 1 0
    outer loop
      vertex 11.6597 1.875 8.10166
      vertex -11.25 1.875 10.5
      vertex 11.4077 1.875 10.5
    endloop
  endfacet
  facet normal 0 1 0
    outer loop
      vertex 11.6597 1.875 8.10166
      vertex -11.6597 1.875 6.60166
      vertex -11.25 1.875 10.5
    endloop
  endfacet
  facet normal 0 1 0
    outer loop
      vertex 12.871 1.875 4.37369
      vertex -11.6597 1.875 6.60166
      vertex 11.6597 1.875 8.10166
    endloop
  endfacet
  facet normal 0 1 0
    outer loop
      vertex 12.871 1.875 4.37369
      vertex -12.871 1.875 2.87369
      vertex -11.6597 1.875 6.60166
    endloop
  endfacet
  facet normal 0 1 0
    outer loop
      vertex 14.8309 1.875 0.979026
      vertex -12.871 1.875 2.87369
      vertex 12.871 1.875 4.37369
    endloop
  endfacet
  facet normal 0 1 0
    outer loop
      vertex 14.8309 1.875 0.979026
      vertex -14.8309 1.875 -0.520973
      vertex -12.871 1.875 2.87369
    endloop
  endfacet
  facet normal 0 1 0
    outer loop
      vertex 17.4538 1.875 -1.93396
      vertex -14.8309 1.875 -0.520973
      vertex 14.8309 1.875 0.979026
    endloop
  endfacet
  facet normal 0 1 0
    outer loop
      vertex 17.4538 1.875 -1.93396
      vertex -17.4538 1.875 -3.43396
      vertex -14.8309 1.875 -0.520973
    endloop
  endfacet
  facet normal 0 1 0
    outer loop
      vertex 20.625 1.875 -4.23798
      vertex -17.4538 1.875 -3.43396
      vertex 17.4538 1.875 -1.93396
    endloop
  endfacet
  facet normal 0 1 0
    outer loop
      vertex 20.625 1.875 -4.23798
      vertex -20.625 1.875 -5.73798
      vertex -17.4538 1.875 -3.43396
    endloop
  endfacet
  facet normal 0 1 0
    outer loop
      vertex 24.2059 1.875 -5.83231
      vertex -20.625 1.875 -5.73798
      vertex 20.625 1.875 -4.23798
    endloop
  endfacet
  facet normal 0 1 0
    outer loop
      vertex -24.2059 1.875 -7.33231
      vertex 24.2059 1.875 -5.83231
      vertex 28.0401 1.875 -6.64729
    endloop
  endfacet
  facet normal 0 1 0
    outer loop
      vertex 24.2059 1.875 -5.83231
      vertex -24.2059 1.875 -7.33231
      vertex -20.625 1.875 -5.73798
    endloop
  endfacet
  facet normal 0 0 -1
    outer loop
      vertex -30 -1.875 -10.5
      vertex 30 1.875 -10.5
      vertex 30 -1.875 -10.5
    endloop
  endfacet
  facet normal -0 0 -1
    outer loop
      vertex 30 1.875 -10.5
      vertex -30 -1.875 -10.5
      vertex -30 1.875 -10.5
    endloop
  endfacet
  facet normal 0 -1 0
    outer loop
      vertex -30 -1.875 -8.14729
      vertex -30 -1.875 -10.5
      vertex -28.0401 -1.875 -8.14729
    endloop
  endfacet
  facet normal 0 -1 0
    outer loop
      vertex -11.6597 -1.875 6.60166
      vertex -9.375 -1.875 10.5
      vertex -11.25 -1.875 10.5
    endloop
  endfacet
  facet normal 0 -1 0
    outer loop
      vertex -9.375 -1.875 2.5
      vertex -11.6597 -1.875 6.60166
      vertex -12.871 -1.875 2.87369
    endloop
  endfacet
  facet normal 0 -1 0
    outer loop
      vertex -11.6597 -1.875 6.60166
      vertex -9.375 -1.875 2.5
      vertex -9.375 -1.875 10.5
    endloop
  endfacet
  facet normal 0 -1 0
    outer loop
      vertex -17.4538 -1.875 -3.43396
      vertex 9.375 -1.875 2.5
      vertex -9.375 -1.875 2.5
    endloop
  endfacet
  facet normal 0 -1 0
    outer loop
      vertex -14.8309 -1.875 -0.520973
      vertex -9.375 -1.875 2.5
      vertex -12.871 -1.875 2.87369
    endloop
  endfacet
  facet normal 0 -1 0
    outer loop
      vertex -17.4538 -1.875 -3.43396
      vertex -9.375 -1.875 2.5
      vertex -14.8309 -1.875 -0.520973
    endloop
  endfacet
  facet normal 0 -1 0
    outer loop
      vertex 9.375 -1.875 2.5
      vertex 17.4538 -1.875 -1.93396
      vertex 14.8309 -1.875 0.979026
    endloop
  endfacet
  facet normal 0 -1 -0
    outer loop
      vertex 9.375 -1.875 2.5
      vertex -17.4538 -1.875 -3.43396
      vertex 17.4538 -1.875 -1.93396
    endloop
  endfacet
  facet normal 0 -1 0
    outer loop
      vertex -17.4538 -1.875 -3.43396
      vertex 20.625 -1.875 -4.23798
      vertex 17.4538 -1.875 -1.93396
    endloop
  endfacet
  facet normal 0 -1 0
    outer loop
      vertex -20.625 -1.875 -5.73798
      vertex 20.625 -1.875 -4.23798
      vertex -17.4538 -1.875 -3.43396
    endloop
  endfacet
  facet normal 0 -1 0
    outer loop
      vertex 30 -1.875 -10.5
      vertex 20.625 -1.875 -4.23798
      vertex -20.625 -1.875 -5.73798
    endloop
  endfacet
  facet normal 0 -1 0
    outer loop
      vertex 20.625 -1.875 -4.23798
      vertex 30 -1.875 -10.5
      vertex 24.2059 -1.875 -5.83231
    endloop
  endfacet
  facet normal 0 -1 0
    outer loop
      vertex 30 -1.875 -10.5
      vertex -20.625 -1.875 -5.73798
      vertex -24.2059 -1.875 -7.33231
    endloop
  endfacet
  facet normal 0 -1 0
    outer loop
      vertex 24.2059 -1.875 -5.83231
      vertex 30 -1.875 -10.5
      vertex 28.0401 -1.875 -6.64729
    endloop
  endfacet
  facet normal 0 -1 0
    outer loop
      vertex -30 -1.875 -10.5
      vertex -24.2059 -1.875 -7.33231
      vertex -28.0401 -1.875 -8.14729
    endloop
  endfacet
  facet normal 0 -1 -0
    outer loop
      vertex -24.2059 -1.875 -7.33231
      vertex -30 -1.875 -10.5
      vertex 30 -1.875 -10.5
    endloop
  endfacet
  facet normal 0 -1 0
    outer loop
      vertex 28.0401 -1.875 -6.64729
      vertex 30 -1.875 -10.5
      vertex 30 -1.875 -6.64729
    endloop
  endfacet
  facet normal 0 -1 0
    outer loop
      vertex 9.375 -1.875 10.5
      vertex 11.6597 -1.875 8.10166
      vertex 11.4077 -1.875 10.5
    endloop
  endfacet
  facet normal 0 -1 0
    outer loop
      vertex 9.375 -1.875 2.5
      vertex 11.6597 -1.875 8.10166
      vertex 9.375 -1.875 10.5
    endloop
  endfacet
  facet normal 0 -1 -0
    outer loop
      vertex 11.6597 -1.875 8.10166
      vertex 9.375 -1.875 2.5
      vertex 12.871 -1.875 4.37369
    endloop
  endfacet
  facet normal 0 -1 -0
    outer loop
      vertex 12.871 -1.875 4.37369
      vertex 9.375 -1.875 2.5
      vertex 14.8309 -1.875 0.979026
    endloop
  endfacet
  facet normal 1 -0 0
    outer loop
      vertex -9.375 -1.875 10.5
      vertex -9.375 0 2.5
      vertex -9.375 0 10.5
    endloop
  endfacet
  facet normal 1 0 0
    outer loop
      vertex -9.375 0 2.5
      vertex -9.375 -1.875 10.5
      vertex -9.375 -1.875 2.5
    endloop
  endfacet
  facet normal -1 0 0
    outer loop
      vertex 9.375 -1.875 2.5
      vertex 9.375 0 10.5
      vertex 9.375 0 2.5
    endloop
  endfacet
  facet normal -1 -0 0
    outer loop
      vertex 9.375 0 10.5
      vertex 9.375 -1.875 2.5
      vertex 9.375 -1.875 10.5
    endloop
  endfacet
  facet normal 0 -1 0
    outer loop
      vertex -9.375 0 2.5
      vertex 9.375 0 10.5
      vertex -9.375 0 10.5
    endloop
  endfacet
  facet normal 0 -1 -0
    outer loop
      vertex 9.375 0 10.5
      vertex -9.375 0 2.5
      vertex 9.375 0 2.5
    endloop
  endfacet
  facet normal -0 0 1
    outer loop
      vertex -9.375 0 2.5
      vertex 9.375 -1.875 2.5
      vertex 9.375 0 2.5
    endloop
  endfacet
  facet normal 0 0 1
    outer loop
      vertex 9.375 -1.875 2.5
      vertex -9.375 0 2.5
      vertex -9.375 -1.875 2.5
    endloop
  endfacet
  facet normal -0.743145 0 0.669131
    outer loop
      vertex -17.4538 -1.875 -3.43396
      vertex -14.8309 1.875 -0.520973
      vertex -17.4538 1.875 -3.43396
    endloop
  endfacet
  facet normal -0.743145 0 0.669131
    outer loop
      vertex -14.8309 1.875 -0.520973
      vertex -17.4538 -1.875 -3.43396
      vertex -14.8309 -1.875 -0.520973
    endloop
  endfacet
  facet normal -0.866025 0 0.5
    outer loop
      vertex -14.8309 -1.875 -0.520973
      vertex -12.871 1.875 2.87369
      vertex -14.8309 1.875 -0.520973
    endloop
  endfacet
  facet normal -0.866025 0 0.5
    outer loop
      vertex -12.871 1.875 2.87369
      vertex -14.8309 -1.875 -0.520973
      vertex -12.871 -1.875 2.87369
    endloop
  endfacet
  facet normal -0 0 1
    outer loop
      vertex -30 1.875 -8.14729
      vertex -28.0401 -1.875 -8.14729
      vertex -28.0401 1.875 -8.14729
    endloop
  endfacet
  facet normal 0 0 1
    outer loop
      vertex -28.0401 -1.875 -8.14729
      vertex -30 1.875 -8.14729
      vertex -30 -1.875 -8.14729
    endloop
  endfacet
  facet normal -0.406737 0 0.913545
    outer loop
      vertex -24.2059 1.875 -7.33231
      vertex -20.625 -1.875 -5.73798
      vertex -20.625 1.875 -5.73798
    endloop
  endfacet
  facet normal -0.406737 0 0.913545
    outer loop
      vertex -20.625 -1.875 -5.73798
      vertex -24.2059 1.875 -7.33231
      vertex -24.2059 -1.875 -7.33231
    endloop
  endfacet
  facet normal -0.587785 0 0.809017
    outer loop
      vertex -20.625 1.875 -5.73798
      vertex -17.4538 -1.875 -3.43396
      vertex -17.4538 1.875 -3.43396
    endloop
  endfacet
  facet normal -0.587785 0 0.809017
    outer loop
      vertex -17.4538 -1.875 -3.43396
      vertex -20.625 1.875 -5.73798
      vertex -20.625 -1.875 -5.73798
    endloop
  endfacet
  facet normal -0.951056 0 0.309017
    outer loop
      vertex -12.871 -1.875 2.87369
      vertex -11.6597 1.875 6.60166
      vertex -12.871 1.875 2.87369
    endloop
  endfacet
  facet normal -0.951056 0 0.309017
    outer loop
      vertex -11.6597 1.875 6.60166
      vertex -12.871 -1.875 2.87369
      vertex -11.6597 -1.875 6.60166
    endloop
  endfacet
  facet normal -0.994522 0 0.104528
    outer loop
      vertex -11.6597 -1.875 6.60166
      vertex -11.25 1.875 10.5
      vertex -11.6597 1.875 6.60166
    endloop
  endfacet
  facet normal -0.994522 0 0.104528
    outer loop
      vertex -11.25 1.875 10.5
      vertex -11.6597 -1.875 6.60166
      vertex -11.25 -1.875 10.5
    endloop
  endfacet
  facet normal -0.207912 0 0.978148
    outer loop
      vertex -28.0401 1.875 -8.14729
      vertex -24.2059 -1.875 -7.33231
      vertex -24.2059 1.875 -7.33231
    endloop
  endfacet
  facet normal -0.207912 0 0.978148
    outer loop
      vertex -24.2059 -1.875 -7.33231
      vertex -28.0401 1.875 -8.14729
      vertex -28.0401 -1.875 -8.14729
    endloop
  endfacet
  facet normal 0.951056 -0 0.309017
    outer loop
      vertex 11.6597 -1.875 8.10166
      vertex 12.871 1.875 4.37369
      vertex 11.6597 1.875 8.10166
    endloop
  endfacet
  facet normal 0.951056 0 0.309017
    outer loop
      vertex 12.871 1.875 4.37369
      vertex 11.6597 -1.875 8.10166
      vertex 12.871 -1.875 4.37369
    endloop
  endfacet
  facet normal 0.406737 0 0.913545
    outer loop
      vertex 20.625 1.875 -4.23798
      vertex 24.2059 -1.875 -5.83231
      vertex 24.2059 1.875 -5.83231
    endloop
  endfacet
  facet normal 0.406737 0 0.913545
    outer loop
      vertex 24.2059 -1.875 -5.83231
      vertex 20.625 1.875 -4.23798
      vertex 20.625 -1.875 -4.23798
    endloop
  endfacet
  facet normal -0 0 1
    outer loop
      vertex 28.0401 1.875 -6.64729
      vertex 30 -1.875 -6.64729
      vertex 30 1.875 -6.64729
    endloop
  endfacet
  facet normal 0 0 1
    outer loop
      vertex 30 -1.875 -6.64729
      vertex 28.0401 1.875 -6.64729
      vertex 28.0401 -1.875 -6.64729
    endloop
  endfacet
  facet normal 0.994522 -0 0.104528
    outer loop
      vertex 11.4077 -1.875 10.5
      vertex 11.6597 1.875 8.10166
      vertex 11.4077 1.875 10.5
    endloop
  endfacet
  facet normal 0.994522 0 0.104528
    outer loop
      vertex 11.6597 1.875 8.10166
      vertex 11.4077 -1.875 10.5
      vertex 11.6597 -1.875 8.10166
    endloop
  endfacet
  facet normal 0.866025 -0 0.5
    outer loop
      vertex 12.871 -1.875 4.37369
      vertex 14.8309 1.875 0.979026
      vertex 12.871 1.875 4.37369
    endloop
  endfacet
  facet normal 0.866025 0 0.5
    outer loop
      vertex 14.8309 1.875 0.979026
      vertex 12.871 -1.875 4.37369
      vertex 14.8309 -1.875 0.979026
    endloop
  endfacet
  facet normal 0.743145 -0 0.669131
    outer loop
      vertex 14.8309 -1.875 0.979026
      vertex 17.4538 1.875 -1.93396
      vertex 14.8309 1.875 0.979026
    endloop
  endfacet
  facet normal 0.743145 0 0.669131
    outer loop
      vertex 17.4538 1.875 -1.93396
      vertex 14.8309 -1.875 0.979026
      vertex 17.4538 -1.875 -1.93396
    endloop
  endfacet
  facet normal 0.587785 0 0.809017
    outer loop
      vertex 17.4538 1.875 -1.93396
      vertex 20.625 -1.875 -4.23798
      vertex 20.625 1.875 -4.23798
    endloop
  endfacet
  facet normal 0.587785 0 0.809017
    outer loop
      vertex 20.625 -1.875 -4.23798
      vertex 17.4538 1.875 -1.93396
      vertex 17.4538 -1.875 -1.93396
    endloop
  endfacet
  facet normal 0.207912 0 0.978148
    outer loop
      vertex 24.2059 1.875 -5.83231
      vertex 28.0401 -1.875 -6.64729
      vertex 28.0401 1.875 -6.64729
    endloop
  endfacet
  facet normal 0.207912 0 0.978148
    outer loop
      vertex 28.0401 -1.875 -6.64729
      vertex 24.2059 1.875 -5.83231
      vertex 24.2059 -1.875 -5.83231
    endloop
  endfacet
endsolid OpenSCAD_Model
